<svg xmlns="http://www.w3.org/2000/svg" width="1361" height="767"><defs><linearGradient id="a" x1="3.92%" y1="0%" y2="0%"><stop offset="0%" stop-color="#F5F5F5"/><stop offset="25.85%" stop-color="#E8E8E8"/><stop offset="70.532%" stop-color="#F5F5F5"/><stop offset="100%" stop-color="#FAFAFA"/></linearGradient><linearGradient id="b" x1="0%" y1="0%" y2="0%"><stop offset="0%" stop-color="#EBEBEB"/><stop offset="9.104%" stop-color="#F6F6F6"/><stop offset="19.56%" stop-color="#F1F1F1"/><stop offset="39.361%" stop-color="#EBEBEB"/><stop offset="64.367%" stop-color="#EAEAEA"/><stop offset="100%" stop-color="#FAFAFA"/></linearGradient><linearGradient id="c" x1="0%" y1="0%" y2="0%"><stop offset="0%" stop-color="#F6F6F6"/><stop offset="54.378%" stop-color="#F1F1F1"/><stop offset="100%" stop-color="#FAFAFA"/></linearGradient><linearGradient id="d" x1="49.396%" x2="49.396%" y1=".604%" y2="98.272%"><stop offset="0%" stop-color="#EEE"/><stop offset="100%" stop-color="#DEDEDE"/></linearGradient></defs><g fill="none" fill-rule="evenodd"><rect width="1145" height="748" x="108" fill="url(#a)" rx="35.381"/><path fill="url(#b)" d="M0 742h1361v9H0z"/><path fill="url(#c)" d="M560 742h242v4a4 4 0 0 1-3.998 4H563.998a4.002 4.002 0 0 1-3.998-4v-4z"/><path fill="url(#d)" d="M682.768 749L1361 751.25S1328.368 767 1143.24 767H682.768 217.76C32.719 767 0 751.25 0 751.25L682.768 749z"/></g></svg>