<?xml version="1.0" encoding="UTF-8"?><!DOCTYPE svg PUBLIC "-//W3C//DTD SVG 1.1//EN" "http://www.w3.org/Graphics/SVG/1.1/DTD/svg11.dtd"><svg xmlns="http://www.w3.org/2000/svg"><symbol id="icon-arrow-right" viewBox="0 0 33 7"><title>Path 3@2x</title><path d="M25.358 1.768a1 1 0 0 1 1.28-1.536l6 5c.719.599.295 1.768-.64 1.768H1a1 1 0 0 1 0-2h28.236l-3.878-3.232z"/></symbol><symbol id="icon-arrow-up" viewBox="0 0 26 14"><path fill="none" stroke="#8B8DAB" stroke-linecap="round" stroke-linejoin="round" stroke-width="2" d="M1 12.959L12.979 1 25 13"/></symbol><symbol id="icon-arrow" viewBox="0 0 13 53"><path fill="none" stroke="#DC3E4A" stroke-linecap="round" stroke-linejoin="round" stroke-width="2" d="M1 1v51l10.198-10.198"/></symbol><symbol id="icon-checkmark" viewBox="0 0 32 32"><path d="M27 4L12 19l-7-7-5 5 12 12L32 9z"/></symbol><symbol id="icon-chevron-left" viewBox="0 0 14 26"><path d="M2.413 12.98l11.295 11.314a1 1 0 1 1-1.416 1.412l-12-12.02a1 1 0 0 1 0-1.413L12.251.293a1 1 0 0 1 1.415 1.413L2.413 12.98z"/></symbol><symbol id="icon-chevron-right" viewBox="0 0 14 26"><path d="M11.587 13.02L.292 1.707A1 1 0 1 1 1.708.294l12 12.02a1 1 0 0 1 0 1.413L1.749 25.707a1 1 0 0 1-1.415-1.413L11.587 13.02z"/></symbol><symbol id="icon-cross" viewBox="0 0 32 32"><title>cross</title><path d="M31.708 25.708L22 16l9.708-9.708a1 1 0 0 0 0-1.414L27.122.292a1 1 0 0 0-1.414-.001L16 9.999 6.292.291a.998.998 0 0 0-1.414.001L.292 4.878a1 1 0 0 0 0 1.414L10 16 .292 25.708a.999.999 0 0 0 0 1.414l4.586 4.586a1 1 0 0 0 1.414 0L16 22l9.708 9.708a1 1 0 0 0 1.414 0l4.586-4.586a.999.999 0 0 0 0-1.414z"/></symbol><symbol id="icon-facebook" viewBox="0 0 32 32"><path d="M19 6h5V0h-5c-3.86 0-7 3.14-7 7v3H8v6h4v16h6V16h5l1-6h-6V7c0-.542.458-1 1-1z"/></symbol><symbol id="icon-linkedin" viewBox="0 0 32 32"><path d="M12 12h5.535v2.837h.079c.77-1.381 2.655-2.837 5.464-2.837C28.92 12 30 15.637 30 20.367V30h-5.769v-8.54c0-2.037-.042-4.657-3.001-4.657-3.005 0-3.463 2.218-3.463 4.509V30H12V12zM2 12h6v18H2V12zM8 7a3 3 0 1 1-6 0 3 3 0 0 1 6 0z"/></symbol><symbol id="icon-menu" viewBox="0 0 24 14"><title>menu@2x</title><path d="M1 0h22a1 1 0 1 1 0 2H1a1 1 0 1 1 0-2zm11 6h11a1 1 0 1 1 0 2H12a1 1 0 1 1 0-2zm-7 6h18a1 1 0 1 1 0 2H5a1 1 0 1 1 0-2z" fill-rule="evenodd"/></symbol><symbol id="icon-quote" viewBox="0 0 10 9"><title>&#x201E;@2x</title><path d="M.5 7c.743 0 1.222-.162 1.436-.488.214-.325.32-.987.32-1.987v-.6H.974V.25H4.25V3.4c0 1.45-.09 2.519-.27 3.206-.18.688-.53 1.175-1.048 1.463C2.414 8.356 1.604 8.5.5 8.5V7zm5.25 0c.743 0 1.222-.162 1.436-.488.214-.325.32-.987.32-1.987v-.6H6.224V.25H9.5V3.4c0 1.425-.09 2.487-.27 3.188-.18.7-.53 1.193-1.048 1.48-.518.288-1.328.432-2.432.432V7z" fill="#FFF" fill-rule="evenodd"/></symbol><symbol id="icon-twitter" viewBox="0 0 32 32"><path d="M32 7.075a12.941 12.941 0 0 1-3.769 1.031 6.601 6.601 0 0 0 2.887-3.631 13.21 13.21 0 0 1-4.169 1.594A6.565 6.565 0 0 0 22.155 4a6.563 6.563 0 0 0-6.563 6.563c0 .512.056 1.012.169 1.494A18.635 18.635 0 0 1 2.23 5.195a6.56 6.56 0 0 0-.887 3.3 6.557 6.557 0 0 0 2.919 5.463 6.565 6.565 0 0 1-2.975-.819v.081a6.565 6.565 0 0 0 5.269 6.437 6.574 6.574 0 0 1-2.968.112 6.588 6.588 0 0 0 6.131 4.563 13.17 13.17 0 0 1-9.725 2.719 18.568 18.568 0 0 0 10.069 2.95c12.075 0 18.681-10.006 18.681-18.681 0-.287-.006-.569-.019-.85A13.216 13.216 0 0 0 32 7.076z"/></symbol><symbol id="icon-warning" viewBox="0 0 32 32"><path d="M16 2.899l13.409 26.726H2.59L15.999 2.899zM16 0c-.69 0-1.379.465-1.903 1.395L.438 28.617C-.608 30.477.282 32 2.416 32h27.166c2.134 0 3.025-1.522 1.978-3.383L17.901 1.395C17.378.465 16.688 0 15.998 0zm2 26a2 2 0 1 1-3.999.001A2 2 0 0 1 18 26zm-2-4a2 2 0 0 1-2-2v-6a2 2 0 1 1 4 0v6a2 2 0 0 1-2 2z"/></symbol></svg>