<?xml version="1.0" standalone="no"?>
<!DOCTYPE svg PUBLIC "-//W3C//DTD SVG 20010904//EN"
 "http://www.w3.org/TR/2001/REC-SVG-20010904/DTD/svg10.dtd">
<svg version="1.0" xmlns="http://www.w3.org/2000/svg"
 width="1500.000000pt" height="1500.000000pt" viewBox="0 0 1500.000000 1500.000000"
 preserveAspectRatio="xMidYMid meet">
<metadata>
Created by potrace 1.11, written by Peter Selinger 2001-2013
</metadata>
<g transform="translate(0.000000,1500.000000) scale(0.100000,-0.100000)"
fill="#000000" stroke="none">
<path d="M14217 14934 c-1 -1 -45 -5 -97 -8 -52 -4 -106 -9 -120 -11 -14 -2
-52 -7 -85 -10 -33 -3 -85 -10 -115 -15 -30 -5 -75 -12 -100 -15 -25 -2 -81
-12 -125 -20 -44 -9 -96 -18 -115 -21 -19 -3 -37 -7 -40 -9 -3 -2 -23 -6 -45
-9 -22 -4 -116 -24 -210 -46 -93 -22 -180 -42 -191 -45 -79 -18 -404 -115
-566 -169 -258 -86 -584 -209 -753 -286 -27 -12 -75 -33 -105 -47 -159 -71
-252 -116 -425 -204 -104 -52 -206 -105 -226 -117 -21 -11 -63 -35 -95 -52
-33 -17 -66 -35 -74 -41 -8 -5 -76 -44 -150 -87 -74 -44 -162 -96 -195 -117
-33 -21 -89 -56 -125 -79 -74 -46 -398 -264 -414 -278 -6 -5 -56 -41 -111 -80
-55 -40 -102 -75 -105 -78 -3 -3 -21 -17 -40 -30 -19 -13 -37 -27 -40 -30 -3
-3 -23 -19 -45 -35 -22 -16 -47 -35 -55 -42 -8 -6 -58 -46 -110 -88 -124 -99
-119 -95 -230 -188 -52 -45 -105 -90 -116 -101 -12 -12 -43 -40 -70 -63 -191
-162 -537 -499 -785 -763 -170 -181 -433 -478 -624 -705 -27 -33 -66 -77 -86
-100 -19 -22 -82 -96 -138 -165 -57 -69 -116 -139 -130 -156 -14 -18 -39 -49
-56 -70 -16 -20 -35 -42 -40 -48 -9 -10 -294 -367 -359 -451 -543 -697 -969
-1290 -1451 -2015 -270 -407 -355 -538 -355 -545 0 -2 -17 -30 -39 -62 -66
-99 -226 -355 -310 -495 -9 -15 -52 -87 -96 -159 -44 -73 -89 -148 -100 -168
-11 -20 -47 -81 -79 -136 -33 -55 -79 -134 -103 -175 -24 -41 -48 -82 -53 -90
-5 -8 -16 -28 -25 -45 -8 -16 -24 -46 -36 -65 -21 -34 -133 -234 -199 -355
-18 -33 -44 -80 -58 -105 -13 -25 -47 -88 -75 -140 -28 -52 -71 -133 -96 -180
-25 -47 -104 -201 -176 -344 l-130 -258 35 -31 c19 -16 73 -65 120 -107 47
-43 132 -119 190 -171 58 -51 123 -109 145 -130 22 -20 130 -116 240 -214 110
-98 202 -181 205 -184 3 -3 41 -37 85 -76 44 -38 87 -77 95 -85 8 -8 76 -69
150 -135 74 -66 137 -122 140 -125 3 -3 68 -61 145 -129 77 -69 145 -129 150
-135 6 -6 28 -26 50 -45 22 -19 80 -70 128 -114 127 -117 110 -112 197 -59
146 88 485 306 488 314 2 4 8 8 13 8 8 0 189 119 199 131 3 3 15 11 27 18 24
12 259 174 488 336 184 129 196 138 214 152 9 7 86 63 171 124 85 62 169 123
185 136 17 13 35 27 40 31 95 70 164 121 339 256 114 89 223 172 241 186 74
56 118 91 280 222 257 206 465 376 565 462 14 11 52 44 85 71 33 28 62 52 65
55 3 3 32 27 65 55 33 27 62 52 65 56 4 5 57 51 185 159 16 14 39 34 50 45 12
11 55 49 96 84 41 36 85 75 99 88 14 12 37 33 51 45 14 13 67 61 118 108 52
47 103 93 115 103 41 36 364 337 516 482 265 253 939 935 1145 1160 142 155
241 264 345 379 19 22 42 47 50 56 8 9 42 47 75 85 33 39 64 75 70 81 5 6 26
30 45 54 19 24 40 48 45 54 8 9 60 72 130 158 388 477 788 1073 1095 1633 71
129 296 579 342 685 23 50 58 130 73 165 8 17 26 59 40 95 15 36 38 92 52 125
104 254 312 859 338 985 1 8 9 35 16 60 7 25 13 50 15 56 1 6 9 36 17 65 9 30
18 65 21 79 3 14 24 104 46 200 54 236 89 415 115 595 3 22 10 65 15 95 5 30
12 82 16 115 3 33 8 68 10 78 2 10 6 48 9 85 4 37 8 78 10 92 3 14 7 66 11
115 3 50 8 113 10 140 8 89 12 608 5 675 l-6 65 -48 0 c-27 0 -49 0 -50 -1z
m-2316 -2098 c76 -11 102 -16 154 -33 188 -60 334 -186 418 -363 33 -71 64
-185 75 -280 9 -77 8 -291 -2 -345 -2 -16 -12 -68 -20 -115 -18 -100 -20 -111
-36 -170 -20 -76 -88 -276 -109 -322 -11 -25 -29 -68 -40 -96 -24 -59 -125
-261 -175 -347 -20 -33 -44 -76 -55 -96 -19 -34 -202 -309 -222 -332 -5 -7
-39 -50 -75 -97 -466 -606 -1083 -1099 -1664 -1330 -102 -40 -125 -48 -265
-85 -88 -23 -109 -27 -207 -40 -272 -37 -537 34 -692 183 -232 223 -294 563
-192 1039 81 376 311 848 629 1288 189 262 568 664 787 835 25 19 50 40 55 46
18 20 238 180 333 243 281 183 660 353 867 387 17 3 46 9 65 14 19 5 64 12
100 15 36 4 66 7 67 9 4 4 161 -2 204 -8z"/>
<path d="M4657 9384 c-1 -1 -45 -4 -98 -8 -53 -4 -104 -8 -115 -10 -10 -2 -41
-7 -69 -10 -27 -4 -79 -14 -115 -22 -36 -9 -74 -17 -86 -20 -11 -2 -50 -13
-85 -25 -35 -11 -71 -22 -79 -24 -70 -18 -357 -154 -460 -218 -113 -70 -339
-239 -410 -306 -115 -109 -186 -179 -239 -237 -104 -113 -123 -134 -211 -239
-47 -55 -87 -102 -90 -105 -5 -4 -39 -46 -100 -123 -8 -11 -20 -24 -25 -31
-51 -56 -266 -339 -416 -547 -226 -312 -550 -830 -733 -1169 -154 -285 -368
-746 -442 -951 -90 -251 -163 -491 -189 -624 -72 -360 -77 -609 -18 -825 68
-245 254 -426 430 -419 81 4 183 50 272 124 84 71 269 282 376 430 11 15 70
96 130 180 61 84 117 163 125 175 48 71 236 325 329 445 180 232 402 477 576
635 120 110 405 320 433 320 14 0 38 31 70 90 16 30 48 91 72 135 44 83 150
278 203 375 70 129 254 453 312 550 34 58 73 125 87 150 76 136 494 816 657
1068 172 267 568 857 684 1020 26 36 47 70 47 73 0 10 -167 62 -275 85 -71 16
-125 26 -155 30 -19 2 -46 6 -60 9 -45 8 -326 24 -333 19z"/>
<path d="M9574 5427 c-123 -110 -204 -180 -275 -239 -35 -29 -71 -60 -79 -68
-9 -8 -38 -33 -64 -55 -27 -22 -108 -89 -180 -150 -298 -249 -723 -588 -996
-795 -69 -52 -127 -97 -130 -100 -8 -9 -302 -227 -485 -360 -235 -171 -583
-416 -752 -530 -130 -88 -143 -99 -163 -145 -19 -44 -118 -229 -145 -274 -80
-127 -252 -362 -295 -401 -3 -3 -30 -34 -60 -70 -60 -70 -66 -76 -186 -201
-122 -127 -379 -370 -508 -482 -12 -10 -57 -51 -100 -90 -44 -40 -95 -85 -114
-102 -196 -167 -532 -515 -532 -550 0 -5 -6 -16 -14 -24 -21 -23 -65 -113 -80
-164 -32 -106 4 -227 93 -316 180 -177 473 -230 851 -154 41 8 85 17 97 19 12
2 82 23 155 45 393 120 868 359 1363 684 146 96 418 285 450 312 6 5 37 29 70
53 33 24 74 55 91 69 18 14 47 37 65 51 48 36 293 232 299 239 3 3 45 40 95
81 49 41 97 82 105 90 9 8 47 42 84 75 102 90 110 97 249 227 208 196 443 435
624 633 121 133 138 153 201 235 31 41 63 81 70 88 41 44 198 299 263 427 140
279 210 508 244 795 12 98 12 413 1 470 -2 14 -7 48 -11 75 -11 90 -56 274
-94 388 -42 125 -110 287 -120 287 -3 -1 -42 -33 -87 -73z"/>
<path d="M3082 4285 c-101 -114 -144 -231 -138 -380 3 -83 35 -210 56 -225 4
-3 14 -18 23 -35 8 -16 37 -52 63 -80 43 -44 85 -82 253 -230 19 -16 41 -37
50 -45 9 -9 57 -52 106 -95 50 -44 92 -82 95 -85 3 -3 66 -59 140 -125 74 -66
142 -127 150 -135 8 -8 38 -35 65 -60 239 -214 247 -220 317 -256 164 -84 367
-71 525 33 49 32 154 136 152 151 0 4 -31 33 -68 65 -37 32 -79 68 -92 80 -13
12 -89 80 -169 151 -80 72 -152 137 -161 145 -8 9 -46 43 -84 76 -38 33 -78
69 -91 80 -12 11 -39 35 -60 54 -22 19 -62 55 -89 80 -58 53 -208 188 -239
214 -12 10 -55 49 -96 86 -41 37 -93 83 -115 102 -22 19 -44 39 -50 45 -9 10
-77 72 -175 158 -51 45 -214 190 -220 196 -3 3 -26 24 -51 48 l-46 43 -51 -56z"/>
</g>
</svg>
